<svg xmlns="http://www.w3.org/2000/svg" version="1.1" xmlns:xlink="http://www.w3.org/1999/xlink" xmlns:svgjs="http://svgjs.com/svgjs" width="40" height="40" x="0" y="0" viewBox="0 0 42.53 43.05" style="enable-background:new 0 0 512 512" xml:space="preserve" class=""><g><g xmlns="http://www.w3.org/2000/svg" id="Layer_2" data-name="Layer 2"><g id="Layer_1-2" data-name="Layer 1"><g id="athorized"><path d="m35.27 0a.93.93 0 0 0 -.7.25 11.37 11.37 0 0 1 -15.77.01 1.11 1.11 0 0 0 -1.43 0 11.37 11.37 0 0 1 -15.77 0 1 1 0 0 0 -1.6.65v24.09c0 9.88 17.52 18.48 18.45 18 .72-.32 17.72-8 17.72-18v-24.09a.9.9 0 0 0 -.9-.91z" fill="#ff6e64" data-original="#ff6e64" class=""></path><g fill="#f2605c"><path d="m2.08 3.46a11.27 11.27 0 0 0 3.7-.62 11.13 11.13 0 0 1 -4.18-2.58 1 1 0 0 0 -.7-.26.9.9 0 0 0 -.9.9v2.37a11.92 11.92 0 0 0 2.08.19z" fill="#f2605c" data-original="#f2605c"></path><path d="m19.28 3.46a11.27 11.27 0 0 0 3.72-.62 11.13 11.13 0 0 1 -4.2-2.58 1 1 0 0 0 -.8-.26.91.91 0 0 0 -.63.25 11.12 11.12 0 0 1 -3 2.09 11.38 11.38 0 0 0 4.91 1.12z" fill="#f2605c" data-original="#f2605c"></path><path d="m35.27 0a.93.93 0 0 0 -.7.25 11.22 11.22 0 0 1 -5.81 3v21.75c0 7.34-9.24 13.47-14.38 16.31 1.83 1 3.15 1.61 3.34 1.69a.85.85 0 0 0 .73 0c.72-.32 17.72-8 17.72-18v-24.09a.9.9 0 0 0 -.9-.91z" fill="#f2605c" data-original="#f2605c"></path></g><path d="m35.07 12.46a7.46 7.46 0 0 0 -7.45 7.45c.39 9.89 14.52 9.88 14.91 0a7.46 7.46 0 0 0 -7.46-7.45z" fill="#67c7bf" data-original="#67c7bf"></path><path d="m35.07 12.46a7.81 7.81 0 0 0 -1.69.19c7.62 1.84 7.62 12.69 0 14.52a7.45 7.45 0 1 0 1.69-14.71z" fill="#61bcb1" data-original="#61bcb1"></path><path d="m35.06 22.4a.89.89 0 0 1 -.63-.26l-1.65-1.65a.9.9 0 0 1 1.28-1.27l1 1 2.54-2.54a.9.9 0 0 1 1.28 1.32l-3.18 3.14a.93.93 0 0 1 -.64.26z" fill="#ffffff" data-original="#ffffff" class=""></path><path d="m18.08 19.85a4.63 4.63 0 0 0 0-9.25c-6.08.2-6.08 9.06 0 9.25z" fill="#ffffff" data-original="#ffffff" class=""></path><path d="m20.72 20.65a.9.9 0 0 0 -.84.2 2.68 2.68 0 0 1 -3.59 0 .91.91 0 0 0 -.85-.2c-6.25 1.63-6.56 11.5.52 11.81h4.25c7.07-.31 6.79-10.18.51-11.81z" fill="#ffffff" data-original="#ffffff" class=""></path></g></g></g></g></svg>